<?xml version="1.0" standalone="no"?>
<!DOCTYPE svg PUBLIC "-//W3C//DTD SVG 20010904//EN"
 "http://www.w3.org/TR/2001/REC-SVG-20010904/DTD/svg10.dtd">
<svg version="1.0" xmlns="http://www.w3.org/2000/svg"
 width="1080.000000pt" height="1080.000000pt" viewBox="0 0 1080.000000 1080.000000"
 preserveAspectRatio="xMidYMid meet">
<metadata>
Created by potrace 1.14, written by Peter Selinger 2001-2017
</metadata>
<g transform="translate(0.000000,1080.000000) scale(0.100000,-0.100000)"
fill="#000000" stroke="none">
<path d="M2325 8430 c-1 -3 -2 -574 -1 -1270 l1 -1265 1163 0 1162 0 635 1267
c349 697 632 1269 627 1271 -4 2 -254 3 -556 3 l-549 -1 -386 -772 -386 -773
-357 0 -358 0 -2 772 -3 773 -493 0 c-272 0 -495 -2 -497 -5z"/>
<path d="M7010 8420 c-4 -8 -146 -289 -315 -625 -169 -335 -444 -880 -610
-1210 -166 -330 -369 -732 -449 -893 l-147 -293 527 -1047 c854 -1697 996
-1977 1004 -1982 5 -3 334 -5 732 -5 l723 0 1 493 c0 270 -2 493 -5 493 -3 1
-193 2 -421 3 l-415 1 -51 100 c-28 55 -259 515 -515 1022 l-464 923 477 947
c262 522 494 982 515 1023 l38 75 420 0 420 0 1 493 c0 270 -2 493 -5 493 -3
1 -332 2 -729 3 -635 1 -725 -1 -732 -14z"/>
<path d="M2325 4900 c-5 -10 -2 -2530 4 -2531 3 -1 228 -2 499 -3 l492 -1 0
772 0 773 358 0 357 0 386 -773 387 -772 556 0 c306 0 556 1 556 3 0 3 -364
731 -884 1767 l-386 770 -1161 0 c-638 0 -1162 -2 -1164 -5z"/>
</g>
</svg>
